<?xml version="1.0" standalone="no"?>
<!DOCTYPE svg PUBLIC "-//W3C//DTD SVG 20010904//EN"
 "http://www.w3.org/TR/2001/REC-SVG-20010904/DTD/svg10.dtd">
<svg version="1.0" xmlns="http://www.w3.org/2000/svg"
 width="300.000000pt" height="169.000000pt" viewBox="0 0 300.000000 169.000000"
 preserveAspectRatio="xMidYMid meet">
<metadata>
Created by potrace 1.10, written by Peter Selinger 2001-2011
</metadata>
<g transform="translate(0.000000,169.000000) scale(0.050000,-0.050000)"
fill="#000000" stroke="none">
<path d="M2680 3331 c-1317 -280 -1800 -1878 -852 -2822 1017 -1013 2713 -382
2844 1057 96 1065 -945 1988 -1992 1765z m-210 -970 c490 -487 566 -488 1041
-19 l302 298 168 0 169 -1 -380 -377 c-523 -519 -757 -609 -1076 -415 -81 49
-814 747 -814 775 0 10 69 18 154 18 l154 0 282 -279z m731 -782 c122 -31 237
-125 599 -488 l350 -351 -169 0 -168 0 -302 296 c-477 471 -547 469 -1042 -19
l-282 -277 -167 0 -167 0 385 375 c517 503 617 552 963 464z"/>
</g>
</svg>
